<?xml version="1.0" standalone="no"?>
<!DOCTYPE svg PUBLIC "-//W3C//DTD SVG 20010904//EN"
 "http://www.w3.org/TR/2001/REC-SVG-20010904/DTD/svg10.dtd">
<svg version="1.0" xmlns="http://www.w3.org/2000/svg"
 width="615.000000pt" height="616.000000pt" viewBox="0 0 615.000000 616.000000"
 preserveAspectRatio="xMidYMid meet">

<g transform="translate(0.000000,616.000000) scale(0.100000,-0.100000)"
fill="#000000" stroke="none">
<path d="M1018 3895 c-261 -91 -451 -283 -539 -545 -28 -82 -33 -112 -37 -227
-4 -112 -1 -147 17 -226 66 -287 277 -521 556 -617 58 -20 79 -20 2062 -20
l2003 0 78 30 c122 47 200 98 298 195 134 133 202 260 240 446 19 97 15 269
-9 359 -80 290 -270 501 -543 599 l-85 31 -1987 -1 -1987 0 -67 -24z m4109
-120 c214 -81 387 -275 449 -505 24 -88 24 -271 1 -360 -60 -228 -235 -428
-448 -510 l-78 -30 -1833 0 -1833 1 30 21 c122 89 243 244 294 378 67 172 79
383 32 545 -54 186 -192 381 -328 466 -13 8 -23 16 -23 19 0 3 826 4 1835 3
l1834 -3 68 -25z m-3941 0 c217 -82 388 -274 450 -505 24 -89 25 -272 1 -360
-62 -233 -233 -426 -452 -511 l-77 -30 -51 17 c-173 56 -322 180 -414 342
-182 322 -87 744 215 959 68 49 203 113 239 113 13 0 53 -11 89 -25z"/>
</g>
</svg>
