<?xml version="1.0" standalone="no"?>
<!DOCTYPE svg PUBLIC "-//W3C//DTD SVG 20010904//EN"
 "http://www.w3.org/TR/2001/REC-SVG-20010904/DTD/svg10.dtd">
<svg version="1.0" xmlns="http://www.w3.org/2000/svg"
 width="616.000000pt" height="617.000000pt" viewBox="0 0 616.000000 617.000000"
 preserveAspectRatio="xMidYMid meet">

<g transform="translate(0.000000,617.000000) scale(0.100000,-0.100000)"
fill="#000000" stroke="none">
<path d="M2897 4359 c-283 -41 -569 -191 -757 -397 -152 -165 -248 -342 -305
-564 -36 -138 -46 -376 -21 -521 31 -181 102 -357 209 -517 64 -96 231 -263
327 -327 231 -155 455 -223 731 -223 353 0 656 126 904 375 260 261 387 585
372 954 -16 393 -199 743 -512 979 -92 69 -302 174 -407 202 -176 47 -382 62
-541 39z m173 -679 l0 -580 -580 0 -580 0 0 43 c0 23 7 83 15 132 59 366 285
678 613 848 144 74 240 103 432 131 14 2 42 4 63 5 l37 1 0 -580z m1180 -632
c0 -64 -29 -224 -55 -308 -33 -104 -101 -243 -163 -330 -66 -94 -204 -227
-305 -294 -163 -109 -361 -178 -547 -192 l-90 -7 0 582 0 581 580 0 580 0 0
-32z"/>
</g>
</svg>
