<?xml version="1.0" standalone="no"?>
<!DOCTYPE svg PUBLIC "-//W3C//DTD SVG 20010904//EN"
 "http://www.w3.org/TR/2001/REC-SVG-20010904/DTD/svg10.dtd">
<svg version="1.0" xmlns="http://www.w3.org/2000/svg"
 width="611.000000pt" height="611.000000pt" viewBox="0 0 611.000000 611.000000"
 preserveAspectRatio="xMidYMid meet">

<g transform="translate(0.000000,611.000000) scale(0.100000,-0.100000)"
fill="#000000" stroke="none">
<path d="M3009 4813 c-11 -12 -15 -76 -19 -276 l-5 -260 -358 -96 c-222 -60
-361 -102 -367 -111 -15 -24 -12 -56 8 -72 9 -8 292 -88 627 -178 336 -90 626
-167 645 -173 32 -8 -27 -26 -600 -178 -349 -93 -646 -175 -660 -182 -31 -16
-39 -61 -14 -88 9 -10 22 -19 28 -19 19 1 1266 -335 1266 -340 0 -3 -120 -36
-267 -75 -163 -43 -274 -77 -285 -87 -16 -16 -18 -41 -18 -257 l0 -238 -972
353 c-534 195 -982 354 -994 354 -55 0 -54 20 -54 -790 0 -809 -1 -790 53
-790 13 0 474 164 1025 365 l1002 365 1004 -365 c552 -201 1013 -365 1024
-365 12 0 28 10 36 22 14 20 16 109 16 768 0 809 1 790 -54 790 -12 0 -458
-159 -991 -353 l-970 -353 -3 204 c-1 113 -1 207 1 209 3 2 163 46 357 98 193
52 358 99 366 106 29 24 5 100 -32 99 -25 -1 -1262 336 -1256 341 4 4 291 82
637 175 347 92 638 174 648 183 26 22 19 72 -13 88 -14 7 -309 88 -657 180
-357 95 -625 171 -615 174 9 4 132 37 272 74 140 37 263 75 273 83 15 14 17
41 17 301 0 243 -2 290 -16 309 -18 26 -65 30 -85 5z m-1016 -2388 c482 -175
877 -322 877 -325 0 -4 -892 -331 -1767 -648 -10 -3 -13 131 -13 648 0 517 3
651 13 648 6 -2 407 -148 890 -323z m3017 -326 c0 -517 -3 -650 -12 -647 -345
123 -1768 645 -1768 648 0 5 1756 648 1773 649 4 1 7 -292 7 -650z"/>
</g>
</svg>
