<?xml version="1.0" standalone="no"?>
<!DOCTYPE svg PUBLIC "-//W3C//DTD SVG 20010904//EN"
 "http://www.w3.org/TR/2001/REC-SVG-20010904/DTD/svg10.dtd">
<svg version="1.0" xmlns="http://www.w3.org/2000/svg"
 width="614.000000pt" height="615.000000pt" viewBox="0 0 614.000000 615.000000"
 preserveAspectRatio="xMidYMid meet">

<g transform="translate(0.000000,615.000000) scale(0.100000,-0.100000)"
fill="#000000" stroke="none">
<path d="M991 3851 c-21 -21 -21 -23 -21 -781 0 -758 0 -760 21 -781 13 -13
29 -19 42 -16 12 3 473 170 1024 371 l1001 366 1017 -371 c977 -356 1018 -369
1041 -354 13 8 24 21 24 28 0 6 0 352 0 767 l1 755 -23 18 c-12 10 -29 16 -37
13 -9 -2 -468 -169 -1020 -370 l-1004 -366 -1006 366 c-553 202 -1013 369
-1023 371 -9 3 -26 -5 -37 -16z m4037 -1109 l-3 -328 -892 325 c-491 179 -893
327 -893 331 0 3 402 152 893 331 l892 325 3 -328 c1 -180 1 -476 0 -656z
m-3036 656 c489 -178 888 -325 888 -328 0 -5 -1769 -651 -1782 -650 -5 0 -8
293 -8 650 0 358 3 650 8 650 4 0 406 -145 894 -322z"/>
</g>
</svg>
